<svg width="51" height="51" viewBox="0 0 51 51" fill="none" xmlns="http://www.w3.org/2000/svg">
<path d="M0 5.10001V2.55001C0 1.87371 0.244236 1.22511 0.67898 0.746892C1.11372 0.268674 1.70336 1.47783e-05 2.31818 1.47783e-05H24.9436C26.2382 -0.00278384 27.5078 0.391957 28.6095 1.1398C29.7112 1.88765 30.6013 2.95892 31.1795 4.23301L31.5736 5.10001H0ZM51 12.75V48.45C51 49.1263 50.7558 49.7749 50.321 50.2531C49.8863 50.7313 49.2966 51 48.6818 51H2.31818C1.70336 51 1.11372 50.7313 0.67898 50.2531C0.244236 49.7749 0 49.1263 0 48.45V10.2H48.6818C49.2966 10.2 49.8863 10.4687 50.321 10.9469C50.7558 11.4251 51 12.0737 51 12.75ZM34.7727 28.05C34.7727 26.0211 34.04 24.0753 32.7358 22.6406C31.4316 21.206 29.6626 20.4 27.8182 20.4H23.1818C21.3374 20.4 19.5684 21.206 18.2642 22.6406C16.96 24.0753 16.2273 26.0211 16.2273 28.05C16.2273 28.7263 16.4715 29.3749 16.9063 29.8531C17.341 30.3313 17.9306 30.6 18.5455 30.6C19.1603 30.6 19.7499 30.3313 20.1847 29.8531C20.6194 29.3749 20.8636 28.7263 20.8636 28.05C20.8636 27.3737 21.1079 26.7251 21.5426 26.2469C21.9774 25.7687 22.567 25.5 23.1818 25.5H27.8182C28.433 25.5 29.0226 25.7687 29.4574 26.2469C29.8921 26.7251 30.1364 27.3737 30.1364 28.05C30.1364 28.7263 29.8921 29.3749 29.4574 29.8531C29.0226 30.3313 28.433 30.6 27.8182 30.6H25.5C24.8852 30.6 24.2955 30.8687 23.8608 31.3469C23.4261 31.8251 23.1818 32.4737 23.1818 33.15V38.25C23.1818 38.9263 23.4261 39.5749 23.8608 40.0531C24.2955 40.5313 24.8852 40.8 25.5 40.8C26.1148 40.8 26.7045 40.5313 27.1392 40.0531C27.5739 39.5749 27.8182 38.9263 27.8182 38.25V35.7C29.6626 35.7 31.4316 34.894 32.7358 33.4594C34.04 32.0247 34.7727 30.0789 34.7727 28.05Z" fill="#301934"/>
</svg>
