<svg width="51" height="51" viewBox="0 0 51 51" fill="none" xmlns="http://www.w3.org/2000/svg">
<path d="M2.83333 28.3333H19.8333C21.3917 28.3333 22.6667 27.0583 22.6667 25.5V2.83333C22.6667 1.275 21.3917 0 19.8333 0H2.83333C1.275 0 0 1.275 0 2.83333V25.5C0 27.0583 1.275 28.3333 2.83333 28.3333ZM2.83333 51H19.8333C21.3917 51 22.6667 49.725 22.6667 48.1667V36.8333C22.6667 35.275 21.3917 34 19.8333 34H2.83333C1.275 34 0 35.275 0 36.8333V48.1667C0 49.725 1.275 51 2.83333 51ZM31.1667 51H48.1667C49.725 51 51 49.725 51 48.1667V25.5C51 23.9417 49.725 22.6667 48.1667 22.6667H31.1667C29.6083 22.6667 28.3333 23.9417 28.3333 25.5V48.1667C28.3333 49.725 29.6083 51 31.1667 51ZM28.3333 2.83333V14.1667C28.3333 15.725 29.6083 17 31.1667 17H48.1667C49.725 17 51 15.725 51 14.1667V2.83333C51 1.275 49.725 0 48.1667 0H31.1667C29.6083 0 28.3333 1.275 28.3333 2.83333Z" fill="#301934"/>
</svg>
