<svg width="37" height="51" viewBox="0 0 37 51" fill="none" xmlns="http://www.w3.org/2000/svg">
<path d="M30.6225 0H7.23892C5.54909 0.00504494 3.92992 0.678315 2.73503 1.87277C1.54014 3.06722 0.866619 4.6858 0.861572 6.375V19.125H19.9936C21.685 19.125 23.3071 19.7966 24.5031 20.9922C25.6991 22.1877 26.3709 23.8092 26.3709 25.5C26.3709 27.1908 25.6991 28.8123 24.5031 30.0078C23.3071 31.2034 21.685 31.875 19.9936 31.875H0.861572V44.625C0.866619 46.3142 1.54014 47.9328 2.73503 49.1272C3.92992 50.3217 5.54909 50.995 7.23892 51H30.6225C32.3123 50.995 33.9315 50.3217 35.1264 49.1272C36.3213 47.9328 36.9948 46.3142 36.9999 44.625V6.375C36.9948 4.6858 36.3213 3.06722 35.1264 1.87277C33.9315 0.678315 32.3123 0.00504494 30.6225 0V0Z" fill="#301934"/>
</svg>
